<?xml version="1.0" encoding="UTF-8" standalone="no"?>
<svg width="100%" height="100%" viewBox="0 0 120 32" version="1.1" xmlns="http://www.w3.org/2000/svg" xmlns:xlink="http://www.w3.org/1999/xlink" xml:space="preserve" xmlns:serif="http://www.serif.com/" style="fill-rule:evenodd;clip-rule:evenodd;stroke-linejoin:round;stroke-miterlimit:2;">
    <g transform="matrix(1.25362,0,0,1.25362,5.29348,-8.82174)">
        <g transform="matrix(20,0,0,20,33,27)">
            <path d="M0.303,0.01C0.232,0.01 0.176,-0.01 0.135,-0.049C0.093,-0.087 0.072,-0.14 0.072,-0.206L0.072,-0.344C0.072,-0.41 0.093,-0.463 0.135,-0.501C0.176,-0.541 0.232,-0.56 0.303,-0.56C0.372,-0.56 0.428,-0.542 0.469,-0.506C0.51,-0.471 0.532,-0.422 0.534,-0.361L0.409,-0.361C0.407,-0.39 0.397,-0.412 0.378,-0.428C0.359,-0.443 0.334,-0.451 0.303,-0.451C0.27,-0.451 0.244,-0.442 0.225,-0.424C0.206,-0.405 0.197,-0.379 0.197,-0.345L0.197,-0.206C0.197,-0.172 0.206,-0.146 0.225,-0.127C0.244,-0.108 0.27,-0.099 0.303,-0.099C0.334,-0.099 0.359,-0.107 0.378,-0.123C0.397,-0.138 0.407,-0.16 0.409,-0.189L0.534,-0.189C0.532,-0.128 0.51,-0.079 0.469,-0.043C0.428,-0.008 0.372,0.01 0.303,0.01Z" style="fill:#595959;fill-rule:nonzero;"/>
        </g>
        <g transform="matrix(20,0,0,20,45,27)">
            <path d="M0.38,-0C0.325,-0 0.281,-0.016 0.249,-0.049C0.216,-0.082 0.199,-0.125 0.199,-0.178L0.199,-0.617L0.031,-0.617L0.031,-0.73L0.324,-0.73L0.324,-0.178C0.324,-0.159 0.33,-0.143 0.342,-0.131C0.353,-0.119 0.369,-0.113 0.388,-0.113L0.559,-0.113L0.559,-0L0.38,-0Z" style="fill:#595959;fill-rule:nonzero;"/>
        </g>
        <g transform="matrix(20,0,0,20,57,27)">
            <path d="M0.528,-0.245L0.192,-0.245L0.192,-0.206C0.192,-0.128 0.229,-0.089 0.302,-0.089C0.33,-0.089 0.352,-0.094 0.369,-0.103C0.386,-0.113 0.396,-0.127 0.401,-0.146L0.525,-0.146C0.516,-0.099 0.491,-0.061 0.45,-0.033C0.409,-0.004 0.36,0.01 0.301,0.01C0.254,0.01 0.214,0.001 0.18,-0.017C0.145,-0.035 0.119,-0.06 0.1,-0.093C0.081,-0.125 0.072,-0.163 0.072,-0.206L0.072,-0.344C0.072,-0.387 0.081,-0.425 0.1,-0.458C0.119,-0.49 0.145,-0.515 0.18,-0.533C0.215,-0.551 0.255,-0.56 0.301,-0.56C0.347,-0.56 0.387,-0.551 0.421,-0.533C0.455,-0.515 0.481,-0.49 0.5,-0.458C0.519,-0.425 0.528,-0.387 0.528,-0.344L0.528,-0.245ZM0.192,-0.323L0.408,-0.325L0.408,-0.345C0.408,-0.384 0.399,-0.413 0.381,-0.433C0.363,-0.453 0.336,-0.463 0.301,-0.463C0.265,-0.463 0.238,-0.453 0.22,-0.433C0.201,-0.412 0.192,-0.383 0.192,-0.344L0.192,-0.323Z" style="fill:#595959;fill-rule:nonzero;"/>
        </g>
        <g transform="matrix(20,0,0,20,69,27)">
            <path d="M0.305,-0.56C0.374,-0.56 0.428,-0.544 0.467,-0.511C0.506,-0.478 0.525,-0.432 0.525,-0.373L0.525,-0L0.404,-0L0.404,-0.096L0.402,-0.096C0.395,-0.063 0.377,-0.038 0.347,-0.019C0.318,0 0.281,0.01 0.237,0.01C0.182,0.01 0.138,-0.005 0.105,-0.035C0.072,-0.064 0.056,-0.104 0.056,-0.155C0.056,-0.21 0.074,-0.252 0.11,-0.281C0.146,-0.311 0.197,-0.326 0.263,-0.326L0.4,-0.326L0.4,-0.372C0.4,-0.399 0.392,-0.42 0.375,-0.435C0.358,-0.45 0.334,-0.457 0.303,-0.457C0.275,-0.457 0.252,-0.451 0.234,-0.44C0.217,-0.428 0.206,-0.411 0.203,-0.39L0.081,-0.39C0.087,-0.442 0.11,-0.483 0.151,-0.514C0.191,-0.545 0.242,-0.56 0.305,-0.56ZM0.279,-0.084C0.316,-0.084 0.345,-0.093 0.367,-0.11C0.389,-0.127 0.4,-0.151 0.4,-0.181L0.4,-0.248L0.265,-0.248C0.24,-0.248 0.219,-0.241 0.204,-0.226C0.189,-0.211 0.181,-0.192 0.181,-0.167C0.181,-0.142 0.19,-0.122 0.207,-0.107C0.224,-0.092 0.248,-0.084 0.279,-0.084Z" style="fill:#595959;fill-rule:nonzero;"/>
        </g>
        <g transform="matrix(20,0,0,20,81,27)">
            <path d="M0.346,-0.56C0.401,-0.56 0.444,-0.542 0.476,-0.506C0.509,-0.47 0.525,-0.422 0.525,-0.361L0.525,-0L0.4,-0L0.4,-0.348C0.4,-0.381 0.391,-0.406 0.374,-0.425C0.357,-0.443 0.332,-0.452 0.301,-0.452C0.27,-0.452 0.245,-0.443 0.228,-0.424C0.211,-0.405 0.202,-0.379 0.202,-0.344L0.202,-0L0.077,-0L0.077,-0.55L0.199,-0.55L0.199,-0.445L0.201,-0.445C0.206,-0.481 0.222,-0.509 0.247,-0.53C0.272,-0.55 0.305,-0.56 0.346,-0.56Z" style="fill:#595959;fill-rule:nonzero;"/>
        </g>
    </g>
    <g id="logo">
        <g transform="matrix(0.0680851,0,0,0.0680851,-1.17553,-1.77021)">
            <path d="M244.922,93.998C158.823,98.103 89.698,167.461 85.965,253.656L18.113,253.656C21.916,130.032 121.393,30.318 244.922,26.137L244.922,93.998Z" style="fill:#5397e4;"/>
        </g>
        <g transform="matrix(0.0680851,0,0,0.0680851,-1.17553,-1.77021)">
            <path d="M259.609,26.091C383.818,29.529 484.069,129.543 487.887,253.656L420.035,253.656C416.281,166.971 346.39,97.315 259.609,93.935L259.609,26.091Z" style="fill:#267bd9;"/>
        </g>
        <g transform="matrix(0.0680851,0,0,0.0680851,-1.17553,-1.77021)">
            <path d="M244.922,495.863C121.393,491.682 21.916,391.968 18.113,268.344L85.965,268.344C89.698,354.539 158.823,423.897 244.922,428.002L244.922,495.863Z" style="fill:#2764a9;"/>
        </g>
        <g transform="matrix(0.0680851,0,0,0.0680851,-1.17553,-1.77021)">
            <path d="M259.609,428.065C346.39,424.685 416.281,355.029 420.035,268.344L487.887,268.344C484.069,392.457 383.818,492.471 259.609,495.909L259.609,428.065Z" style="fill:#206fc7;"/>
        </g>
        <g transform="matrix(0.0795455,0,0,0.0795455,-4.87045,-3.72727)">
            <path d="M263,116C335.853,116 395,175.147 395,248C395,320.853 335.853,380 263,380C190.147,380 131,320.853 131,248C131,175.147 190.147,116 263,116ZM263,174.667C222.526,174.667 189.667,207.526 189.667,248C189.667,288.474 222.526,321.333 263,321.333C303.474,321.333 336.333,288.474 336.333,248C336.333,207.526 303.474,174.667 263,174.667Z" style="fill:#999;"/>
        </g>
    </g>
</svg>
